<svg width="16" height="16" viewBox="0 0 16 16" fill="none" xmlns="http://www.w3.org/2000/svg">
<g id="Iconly/Light/Bag">
<g id="Bag">
<path id="Path_33955" fill-rule="evenodd" clip-rule="evenodd" d="M11.0091 14.3334H5.44386C3.39962 14.3334 1.83135 13.595 2.27681 10.6232L2.7955 6.59575C3.0701 5.11292 4.01595 4.54541 4.84585 4.54541H11.6315C12.4736 4.54541 13.3645 5.15563 13.6818 6.59575L14.2005 10.6232C14.5789 13.2594 13.0533 14.3334 11.0091 14.3334Z" stroke="#6F6F6F" stroke-linecap="round" stroke-linejoin="round"/>
<path id="Path_33956" d="M11.1006 4.39895C11.1006 2.80823 9.81104 1.5187 8.22033 1.5187V1.5187C7.45433 1.51546 6.71859 1.81748 6.1758 2.35798C5.633 2.89848 5.32787 3.63294 5.32788 4.39895H5.32788" stroke="#6F6F6F" stroke-linecap="round" stroke-linejoin="round"/>
<path id="Line_192" d="M10.1976 7.40124H10.1671" stroke="#6F6F6F" stroke-linecap="round" stroke-linejoin="round"/>
<path id="Line_193" d="M6.31036 7.40124H6.27985" stroke="#6F6F6F" stroke-linecap="round" stroke-linejoin="round"/>
</g>
</g>
</svg>
