<svg width="28" height="25" viewBox="0 0 28 25" fill="none" xmlns="http://www.w3.org/2000/svg">
<path fill-rule="evenodd" clip-rule="evenodd" d="M21.2537 5.11678C21.307 5.21001 21.4003 5.2766 21.5203 5.2766C24.7203 5.2766 27.3337 7.88704 27.3337 11.0835V18.9947C27.3337 22.1911 24.7203 24.8016 21.5203 24.8016H6.48033C3.26699 24.8016 0.666992 22.1911 0.666992 18.9947V11.0835C0.666992 7.88704 3.26699 5.2766 6.48033 5.2766C6.58699 5.2766 6.69366 5.22333 6.73366 5.11678L6.81366 4.95696C6.85962 4.86021 6.9068 4.76084 6.9547 4.65996C7.29579 3.94149 7.67316 3.14664 7.90699 2.67949C8.52032 1.48082 9.56032 0.814893 10.8537 0.801575H17.1337C18.427 0.814893 19.4803 1.48082 20.0937 2.67949C20.3037 3.09902 20.6236 3.77479 20.932 4.42613C20.9956 4.56054 21.0587 4.69391 21.1203 4.82377L21.2537 5.11678ZM20.2804 10.2312C20.2804 10.8971 20.8138 11.4298 21.4804 11.4298C22.1471 11.4298 22.6938 10.8971 22.6938 10.2312C22.6938 9.56524 22.1471 9.01919 21.4804 9.01919C20.8138 9.01919 20.2804 9.56524 20.2804 10.2312ZM11.694 12.2955C12.3206 11.6695 13.134 11.3366 14.0006 11.3366C14.8673 11.3366 15.6806 11.6695 16.294 12.2822C16.9073 12.8948 17.2406 13.7073 17.2406 14.573C17.2273 16.3577 15.7873 17.8094 14.0006 17.8094C13.134 17.8094 12.3206 17.4764 11.7073 16.8638C11.094 16.2511 10.7606 15.4387 10.7606 14.573V14.5597C10.7473 13.7206 11.0806 12.9082 11.694 12.2955ZM17.6938 18.2754C16.7472 19.221 15.4405 19.8071 14.0005 19.8071C12.6005 19.8071 11.2938 19.261 10.2938 18.2754C9.30716 17.2765 8.76049 15.9713 8.76049 14.5729C8.74716 13.1877 9.29383 11.8825 10.2805 10.8836C11.2805 9.88474 12.6005 9.33868 14.0005 9.33868C15.4005 9.33868 16.7205 9.88474 17.7072 10.8703C18.6938 11.8692 19.2405 13.1877 19.2405 14.5729C19.2272 16.0246 18.6405 17.3298 17.6938 18.2754Z" fill="#6F6F6F"/>
</svg>
