<svg width="20" height="20" viewBox="0 0 20 20" fill="none" xmlns="http://www.w3.org/2000/svg">
<path d="M6.66667 2.5H4.16667C3.24619 2.5 2.5 3.24619 2.5 4.16667V6.66667C2.5 7.58714 3.24619 8.33333 4.16667 8.33333H6.66667C7.58714 8.33333 8.33333 7.58714 8.33333 6.66667V4.16667C8.33333 3.24619 7.58714 2.5 6.66667 2.5Z" stroke="black" stroke-width="1.25" stroke-linecap="round" stroke-linejoin="round"/>
<path d="M14.9999 2.5H12.4999C11.5794 2.5 10.8333 3.24619 10.8333 4.16667V6.66667C10.8333 7.58714 11.5794 8.33333 12.4999 8.33333H14.9999C15.9204 8.33333 16.6666 7.58714 16.6666 6.66667V4.16667C16.6666 3.24619 15.9204 2.5 14.9999 2.5Z" stroke="black" stroke-width="1.25" stroke-linecap="round" stroke-linejoin="round"/>
<path d="M14.9999 10.8333H12.4999C11.5794 10.8333 10.8333 11.5794 10.8333 12.4999V14.9999C10.8333 15.9204 11.5794 16.6666 12.4999 16.6666H14.9999C15.9204 16.6666 16.6666 15.9204 16.6666 14.9999V12.4999C16.6666 11.5794 15.9204 10.8333 14.9999 10.8333Z" stroke="black" stroke-width="1.25" stroke-linecap="round" stroke-linejoin="round"/>
<path d="M6.66667 10.8333H4.16667C3.24619 10.8333 2.5 11.5794 2.5 12.4999V14.9999C2.5 15.9204 3.24619 16.6666 4.16667 16.6666H6.66667C7.58714 16.6666 8.33333 15.9204 8.33333 14.9999V12.4999C8.33333 11.5794 7.58714 10.8333 6.66667 10.8333Z" stroke="black" stroke-width="1.25" stroke-linecap="round" stroke-linejoin="round"/>
</svg>
