<svg width="48" height="48" viewBox="0 0 48 48" fill="none" xmlns="http://www.w3.org/2000/svg">
<g opacity="0.7" filter="url(#filter0_b)">
<circle cx="24" cy="24" r="24" fill="white"/>
</g>
<path d="M31.3248 21.4682C31.3248 21.4682 30.7818 28.2032 30.4668 31.0402C30.3168 32.3952 29.4798 33.1892 28.1088 33.2142C25.4998 33.2612 22.8878 33.2642 20.2798 33.2092C18.9608 33.1822 18.1378 32.3782 17.9908 31.0472C17.6738 28.1852 17.1338 21.4682 17.1338 21.4682" stroke="#1B1918" stroke-width="1.5" stroke-linecap="round" stroke-linejoin="round"/>
<path d="M32.708 18.2397H15.75" stroke="#1B1918" stroke-width="1.5" stroke-linecap="round" stroke-linejoin="round"/>
<path d="M29.4406 18.2397C28.6556 18.2397 27.9796 17.6847 27.8256 16.9157L27.5826 15.6997C27.4326 15.1387 26.9246 14.7507 26.3456 14.7507H22.1126C21.5336 14.7507 21.0256 15.1387 20.8756 15.6997L20.6326 16.9157C20.4786 17.6847 19.8026 18.2397 19.0176 18.2397" stroke="#1B1918" stroke-width="1.5" stroke-linecap="round" stroke-linejoin="round"/>
<defs>
<filter id="filter0_b" x="-50" y="-50" width="148" height="148" filterUnits="userSpaceOnUse" color-interpolation-filters="sRGB">
<feFlood flood-opacity="0" result="BackgroundImageFix"/>
<feGaussianBlur in="BackgroundImage" stdDeviation="25"/>
<feComposite in2="SourceAlpha" operator="in" result="effect1_backgroundBlur"/>
<feBlend mode="normal" in="SourceGraphic" in2="effect1_backgroundBlur" result="shape"/>
</filter>
</defs>
</svg>
