<svg width="16" height="16" viewBox="0 0 16 16" fill="none" xmlns="http://www.w3.org/2000/svg">
<g id="Iconly/Light/Delete">
<g id="Delete">
<path id="Stroke 1" d="M12.8835 6.31213C12.8835 6.31213 12.5215 10.8021 12.3115 12.6935C12.2115 13.5968 11.6535 14.1261 10.7395 14.1428C9.00019 14.1741 7.25885 14.1761 5.52018 14.1395C4.64085 14.1215 4.09218 13.5855 3.99418 12.6981C3.78285 10.7901 3.42285 6.31213 3.42285 6.31213" stroke="#1B1918" stroke-linecap="round" stroke-linejoin="round"/>
<path id="Stroke 3" d="M13.8053 4.15987H2.5" stroke="#1B1918" stroke-linecap="round" stroke-linejoin="round"/>
<path id="Stroke 5" d="M11.6274 4.15986C11.104 4.15986 10.6534 3.78986 10.5507 3.2772L10.3887 2.46653C10.2887 2.09253 9.95004 1.83386 9.56404 1.83386H6.74204C6.35604 1.83386 6.01738 2.09253 5.91738 2.46653L5.75538 3.2772C5.65271 3.78986 5.20204 4.15986 4.67871 4.15986" stroke="#1B1918" stroke-linecap="round" stroke-linejoin="round"/>
</g>
</g>
</svg>
