<svg width="16" height="16" viewBox="0 0 16 16" fill="none" xmlns="http://www.w3.org/2000/svg">
<path fill-rule="evenodd" clip-rule="evenodd" d="M8.00016 14.6666C4.32016 14.6666 1.3335 11.6733 1.3335 7.99992C1.3335 4.31992 4.32016 1.33325 8.00016 1.33325C11.6735 1.33325 14.6668 4.31992 14.6668 7.99992C14.6668 11.6733 11.6735 14.6666 8.00016 14.6666ZM10.6666 6.6799C10.4666 6.48657 10.1533 6.48657 9.95994 6.68657L7.99994 8.65324L6.03994 6.68657C5.8466 6.48657 5.5266 6.48657 5.33327 6.6799C5.13327 6.8799 5.13327 7.19324 5.33327 7.38657L7.6466 9.71324C7.73993 9.80657 7.8666 9.8599 7.99994 9.8599C8.13327 9.8599 8.25994 9.80657 8.35327 9.71324L10.6666 7.38657C10.7666 7.29324 10.8133 7.16657 10.8133 7.0399C10.8133 6.90657 10.7666 6.7799 10.6666 6.6799Z" fill="#CDCBC9"/>
</svg>
