<svg width="24" height="24" viewBox="0 0 24 24" fill="none" xmlns="http://www.w3.org/2000/svg">
<g id="Earning">
<g id="Iconly/Light/Play">
<g id="Play">
<path id="Stroke 1" fill-rule="evenodd" clip-rule="evenodd" d="M12 2.5C17.2459 2.5 21.5 6.75315 21.5 12C21.5 17.2469 17.2459 21.5 12 21.5C6.75315 21.5 2.5 17.2469 2.5 12C2.5 6.75315 6.75315 2.5 12 2.5Z" stroke="#1B1918" stroke-width="1.5" stroke-linecap="round" stroke-linejoin="round"/>
</g>
</g>
<path id="$" d="M12.1986 9.24C12.4919 9.24533 12.7879 9.296 13.0866 9.392C13.3853 9.48267 13.6439 9.62133 13.8626 9.808L13.2146 10.48C13.0919 10.3413 12.9373 10.2373 12.7506 10.168C12.5693 10.0933 12.3853 10.056 12.1986 10.056V11.672C12.4013 11.736 12.6039 11.8107 12.8066 11.896C13.0093 11.9813 13.1906 12.0907 13.3506 12.224C13.5159 12.352 13.6493 12.5093 13.7506 12.696C13.8519 12.8827 13.9026 13.112 13.9026 13.384C13.9026 13.6613 13.8546 13.9067 13.7586 14.12C13.6679 14.328 13.5426 14.504 13.3826 14.648C13.2279 14.7867 13.0466 14.8933 12.8386 14.968C12.6359 15.0427 12.4226 15.0827 12.1986 15.088V15.664H11.7666V15.088C11.4146 15.0773 11.0759 15.0133 10.7506 14.896C10.4306 14.7733 10.1426 14.5893 9.88659 14.344L10.5906 13.672C10.7346 13.8427 10.9159 13.984 11.1346 14.096C11.3533 14.2027 11.5639 14.2587 11.7666 14.264V12.488C11.5319 12.424 11.3133 12.352 11.1106 12.272C10.9079 12.1867 10.7293 12.08 10.5746 11.952C10.4253 11.824 10.3079 11.672 10.2226 11.496C10.1373 11.3147 10.0946 11.096 10.0946 10.84C10.0946 10.6 10.1399 10.3867 10.2306 10.2C10.3266 10.008 10.4519 9.84533 10.6066 9.712C10.7666 9.57867 10.9453 9.47467 11.1426 9.4C11.3453 9.32 11.5533 9.272 11.7666 9.256V8.712H12.1986V9.24ZM11.7666 10.056C11.5799 10.0773 11.4146 10.1467 11.2706 10.264C11.1266 10.3813 11.0546 10.5573 11.0546 10.792C11.0546 11.016 11.1213 11.1867 11.2546 11.304C11.3933 11.416 11.5639 11.5013 11.7666 11.56V10.056ZM12.1986 14.264C12.4226 14.2533 12.6013 14.1733 12.7346 14.024C12.8733 13.8747 12.9426 13.68 12.9426 13.44C12.9426 13.2053 12.8706 13.0293 12.7266 12.912C12.5879 12.7893 12.4119 12.6907 12.1986 12.616V14.264Z" fill="#1B1918"/>
</g>
</svg>
