<svg width="14" height="14" viewBox="0 0 14 14" fill="none" xmlns="http://www.w3.org/2000/svg">
<path fill-rule="evenodd" clip-rule="evenodd" d="M5.58434 9.13745C3.02167 9.13745 0.833008 9.52478 0.833008 11.0768C0.833008 12.6288 3.00834 13.0301 5.58434 13.0301C8.14767 13.0301 10.3357 12.6421 10.3357 11.0908C10.3357 9.53945 8.16101 9.13745 5.58434 9.13745Z" stroke="#6F6F6F" stroke-linecap="round" stroke-linejoin="round"/>
<path fill-rule="evenodd" clip-rule="evenodd" d="M5.58448 6.92392C7.26648 6.92392 8.62981 5.56059 8.62981 3.87859C8.62981 2.19659 7.26648 0.833252 5.58448 0.833252C3.90315 0.833252 2.53981 2.19659 2.53981 3.87859C2.53381 5.55459 3.88715 6.91792 5.56381 6.92392H5.58448Z" stroke="#6F6F6F" stroke-linecap="round" stroke-linejoin="round"/>
<path d="M11.8023 4.77936V7.45269" stroke="#6F6F6F" stroke-linecap="round" stroke-linejoin="round"/>
<path d="M13.1664 6.11599H10.4397" stroke="#6F6F6F" stroke-linecap="round" stroke-linejoin="round"/>
</svg>
