<svg width="144" height="145" viewBox="0 0 144 145" fill="none" xmlns="http://www.w3.org/2000/svg">
<mask id="mask0" style="mask-type:alpha" maskUnits="userSpaceOnUse" x="-104" y="0" width="248" height="145">
<circle cx="4.75" cy="4.26471" r="4.26471" fill="#F47A32"/>
<circle cx="4.75" cy="21.3235" r="4.26471" fill="#F47A32"/>
<circle cx="4.75" cy="38.3824" r="4.26471" fill="#F47A32"/>
<circle cx="4.75" cy="55.4412" r="4.26471" fill="#F47A32"/>
<circle cx="4.75" cy="72.5001" r="4.26471" fill="#F47A32"/>
<circle cx="4.75" cy="89.5587" r="4.26471" fill="#F47A32"/>
<circle cx="4.75" cy="106.618" r="4.26471" fill="#F47A32"/>
<circle cx="4.75" cy="123.676" r="4.26471" fill="#F47A32"/>
<circle cx="4.75" cy="140.735" r="4.26471" fill="#F47A32"/>
<circle cx="19.6765" cy="4.26471" r="4.26471" fill="#F47A32"/>
<circle cx="19.6765" cy="21.3235" r="4.26471" fill="#F47A32"/>
<circle cx="19.6765" cy="38.3824" r="4.26471" fill="#F47A32"/>
<circle cx="19.6765" cy="55.4412" r="4.26471" fill="#F47A32"/>
<circle cx="19.6765" cy="72.5001" r="4.26471" fill="#F47A32"/>
<circle cx="19.6765" cy="89.5587" r="4.26471" fill="#F47A32"/>
<circle cx="19.6765" cy="106.618" r="4.26471" fill="#F47A32"/>
<circle cx="19.6765" cy="123.676" r="4.26471" fill="#F47A32"/>
<circle cx="19.6765" cy="140.735" r="4.26471" fill="#F47A32"/>
<circle cx="34.603" cy="4.26471" r="4.26471" fill="#F47A32"/>
<circle cx="34.603" cy="21.3235" r="4.26471" fill="#F47A32"/>
<circle cx="34.603" cy="38.3824" r="4.26471" fill="#F47A32"/>
<circle cx="34.603" cy="55.4412" r="4.26471" fill="#F47A32"/>
<circle cx="34.603" cy="72.5001" r="4.26471" fill="#F47A32"/>
<circle cx="34.603" cy="89.5587" r="4.26471" fill="#F47A32"/>
<circle cx="34.603" cy="106.618" r="4.26471" fill="#F47A32"/>
<circle cx="34.603" cy="123.676" r="4.26471" fill="#F47A32"/>
<circle cx="34.603" cy="140.735" r="4.26471" fill="#F47A32"/>
<circle cx="49.5294" cy="4.26471" r="4.26471" fill="#F47A32"/>
<circle cx="49.5294" cy="21.3235" r="4.26471" fill="#F47A32"/>
<circle cx="49.5294" cy="38.3824" r="4.26471" fill="#F47A32"/>
<circle cx="49.5294" cy="55.4412" r="4.26471" fill="#F47A32"/>
<circle cx="49.5294" cy="72.5001" r="4.26471" fill="#F47A32"/>
<circle cx="49.5294" cy="89.5587" r="4.26471" fill="#F47A32"/>
<circle cx="49.5294" cy="106.618" r="4.26471" fill="#F47A32"/>
<circle cx="49.5294" cy="123.676" r="4.26471" fill="#F47A32"/>
<circle cx="49.5294" cy="140.735" r="4.26471" fill="#F47A32"/>
<circle cx="64.4559" cy="4.26471" r="4.26471" fill="#F47A32"/>
<circle cx="64.4559" cy="21.3235" r="4.26471" fill="#F47A32"/>
<circle cx="64.4559" cy="38.3824" r="4.26471" fill="#F47A32"/>
<circle cx="64.4559" cy="55.4412" r="4.26471" fill="#F47A32"/>
<circle cx="64.4559" cy="72.5001" r="4.26471" fill="#F47A32"/>
<circle cx="64.4559" cy="89.5587" r="4.26471" fill="#F47A32"/>
<circle cx="64.4559" cy="106.618" r="4.26471" fill="#F47A32"/>
<circle cx="64.4559" cy="123.676" r="4.26471" fill="#F47A32"/>
<circle cx="64.4559" cy="140.735" r="4.26471" fill="#F47A32"/>
<circle cx="79.3824" cy="4.26471" r="4.26471" fill="#F47A32"/>
<circle cx="79.3824" cy="21.3235" r="4.26471" fill="#F47A32"/>
<circle cx="79.3824" cy="38.3824" r="4.26471" fill="#F47A32"/>
<circle cx="79.3824" cy="55.4412" r="4.26471" fill="#F47A32"/>
<circle cx="79.3824" cy="72.5001" r="4.26471" fill="#F47A32"/>
<circle cx="79.3824" cy="89.5587" r="4.26471" fill="#F47A32"/>
<circle cx="79.3824" cy="106.618" r="4.26471" fill="#F47A32"/>
<circle cx="79.3824" cy="123.676" r="4.26471" fill="#F47A32"/>
<circle cx="79.3824" cy="140.735" r="4.26471" fill="#F47A32"/>
<circle cx="94.3088" cy="4.26471" r="4.26471" fill="#F47A32"/>
<circle cx="94.3088" cy="21.3235" r="4.26471" fill="#F47A32"/>
<circle cx="94.3088" cy="38.3824" r="4.26471" fill="#F47A32"/>
<circle cx="94.3088" cy="55.4412" r="4.26471" fill="#F47A32"/>
<circle cx="94.3088" cy="72.5001" r="4.26471" fill="#F47A32"/>
<circle cx="94.3088" cy="89.5587" r="4.26471" fill="#F47A32"/>
<circle cx="94.3088" cy="106.618" r="4.26471" fill="#F47A32"/>
<circle cx="94.3088" cy="123.676" r="4.26471" fill="#F47A32"/>
<circle cx="94.3088" cy="140.735" r="4.26471" fill="#F47A32"/>
<circle cx="109.235" cy="4.26471" r="4.26471" fill="#F47A32"/>
<circle cx="109.235" cy="21.3235" r="4.26471" fill="#F47A32"/>
<circle cx="109.235" cy="38.3824" r="4.26471" fill="#F47A32"/>
<circle cx="109.235" cy="55.4412" r="4.26471" fill="#F47A32"/>
<circle cx="109.235" cy="72.5001" r="4.26471" fill="#F47A32"/>
<circle cx="109.235" cy="89.5587" r="4.26471" fill="#F47A32"/>
<circle cx="109.235" cy="106.618" r="4.26471" fill="#F47A32"/>
<circle cx="109.235" cy="123.676" r="4.26471" fill="#F47A32"/>
<circle cx="109.235" cy="140.735" r="4.26471" fill="#F47A32"/>
<circle cx="124.162" cy="4.26471" r="4.26471" fill="#F47A32"/>
<circle cx="124.162" cy="21.3235" r="4.26471" fill="#F47A32"/>
<circle cx="124.162" cy="38.3824" r="4.26471" fill="#F47A32"/>
<circle cx="124.162" cy="55.4412" r="4.26471" fill="#F47A32"/>
<circle cx="124.162" cy="72.5001" r="4.26471" fill="#F47A32"/>
<circle cx="124.162" cy="89.5587" r="4.26471" fill="#F47A32"/>
<circle cx="124.162" cy="106.618" r="4.26471" fill="#F47A32"/>
<circle cx="124.162" cy="123.676" r="4.26471" fill="#F47A32"/>
<circle cx="124.162" cy="140.735" r="4.26471" fill="#F47A32"/>
<circle cx="139.088" cy="4.26471" r="4.26471" fill="#F47A32"/>
<circle cx="139.088" cy="21.3235" r="4.26471" fill="#F47A32"/>
<circle cx="139.088" cy="38.3824" r="4.26471" fill="#F47A32"/>
<circle cx="139.088" cy="55.4412" r="4.26471" fill="#F47A32"/>
<circle cx="139.088" cy="72.5001" r="4.26471" fill="#F47A32"/>
<circle cx="139.088" cy="89.5587" r="4.26471" fill="#F47A32"/>
<circle cx="139.088" cy="106.618" r="4.26471" fill="#F47A32"/>
<circle cx="139.088" cy="123.676" r="4.26471" fill="#F47A32"/>
<circle cx="139.088" cy="140.735" r="4.26471" fill="#F47A32"/>
</mask>
<g mask="url(#mask0)">
<circle cx="19.6765" cy="72.5001" r="50.6434" fill="#F47A32"/>
</g>
</svg>
