<svg width="18" height="16" viewBox="0 0 18 16" fill="none" xmlns="http://www.w3.org/2000/svg">
<path fill-rule="evenodd" clip-rule="evenodd" d="M9.92021 1.48092L11.4431 4.52321C11.5923 4.82188 11.8804 5.02898 12.2145 5.0769L15.6211 5.56726C16.4628 5.68878 16.7977 6.70887 16.1886 7.29337L13.7252 9.66045C13.4831 9.89322 13.3729 10.2278 13.4301 10.5564L14.0115 13.8983C14.1547 14.7249 13.2748 15.3557 12.5225 14.9646L9.47768 13.3857C9.17918 13.2308 8.82168 13.2308 8.52232 13.3857L5.4775 14.9646C4.72519 15.3557 3.84533 14.7249 3.98937 13.8983L4.56987 10.5564C4.62714 10.2278 4.51694 9.89322 4.27485 9.66045L1.8114 7.29337C1.20226 6.70887 1.5372 5.68878 2.37889 5.56726L5.78554 5.0769C6.11961 5.02898 6.40856 4.82188 6.55781 4.52321L8.07979 1.48092C8.45638 0.728691 9.54362 0.728691 9.92021 1.48092Z" fill="#F4B740" stroke="#F4B740" stroke-width="1.5" stroke-linecap="round" stroke-linejoin="round"/>
</svg>
