<svg width="56" height="56" viewBox="0 0 56 56" fill="none" xmlns="http://www.w3.org/2000/svg">
<g id="Iconly/Light/Image 3">
<g id="Image 2">
<path id="Stroke 1" fill-rule="evenodd" clip-rule="evenodd" d="M38.0392 6.41614H17.8512C10.8232 6.41614 6.41553 11.3955 6.41553 18.4421V37.4495C6.41553 44.4961 10.8045 49.4755 17.8512 49.4755H38.0275C45.0859 49.4755 49.4725 44.4961 49.4725 37.4495V18.4421C49.4819 11.3955 45.0929 6.41614 38.0392 6.41614Z" stroke="#1B1918" stroke-width="3.5" stroke-linecap="round" stroke-linejoin="round"/>
<path id="Stroke 3" fill-rule="evenodd" clip-rule="evenodd" d="M24.9731 20.4983C24.9731 22.8783 23.0457 24.8056 20.6657 24.8056C18.2881 24.8056 16.3584 22.8783 16.3584 20.4983C16.3584 18.1183 18.2881 16.1909 20.6657 16.1909C23.0434 16.1933 24.9707 18.1206 24.9731 20.4983Z" stroke="#1B1918" stroke-width="3.5" stroke-linecap="round" stroke-linejoin="round"/>
<path id="Stroke 5" d="M49.483 34.8855C47.3293 32.6688 43.1877 28.1912 38.6843 28.1912C34.1787 28.1912 31.5817 38.0682 27.2487 38.0682C22.9157 38.0682 18.9793 33.6022 15.5073 36.4652C12.0353 39.3258 8.75 45.1755 8.75 45.1755" stroke="#1B1918" stroke-width="3.5" stroke-linecap="round" stroke-linejoin="round"/>
</g>
</g>
</svg>
