<svg width="20" height="20" viewBox="0 0 20 20" fill="none" xmlns="http://www.w3.org/2000/svg">
<path fill-rule="evenodd" clip-rule="evenodd" d="M10 0.000122945C15.52 0.000122462 20 4.49012 20 10.0001C20 15.5201 15.52 20.0001 10 20.0001C4.49 20.0001 -3.91654e-07 15.5201 -8.74228e-07 10.0001C-1.35593e-06 4.49012 4.49 0.000123426 10 0.000122945ZM6 11.9801C6.3 12.2701 6.77 12.2701 7.06 11.9701L10 9.02012L12.94 11.9701C13.23 12.2701 13.71 12.2701 14 11.9801C14.3 11.6801 14.3 11.2101 14 10.9201L10.53 7.43012C10.39 7.29012 10.2 7.21012 10 7.21012C9.8 7.21012 9.61 7.29012 9.47 7.43012L6 10.9201C5.85 11.0601 5.78 11.2501 5.78 11.4401C5.78 11.6401 5.85 11.8301 6 11.9801Z" fill="#00B879"/>
</svg>
