<svg width="68" height="68" viewBox="0 0 68 68" fill="none" xmlns="http://www.w3.org/2000/svg">
<path fill-rule="evenodd" clip-rule="evenodd" d="M0.666748 34.0196C0.666748 15.6212 15.6281 0.666992 34.0001 0.666992C52.372 0.666992 67.3334 15.6212 67.3334 34.0196C67.3334 52.3795 52.372 67.3337 34.0001 67.3337C15.6281 67.3337 0.666748 52.3795 0.666748 34.0196ZM46.2269 37.3926C46.5808 37.0388 47.0313 36.4921 47.1278 36.3635C47.6426 35.6881 47.9 34.852 47.9 34.0191C47.9 33.0832 47.6104 32.2149 47.0635 31.5074C47.0186 31.4626 46.9308 31.367 46.8164 31.2425C46.6024 31.0096 46.2952 30.6752 46.0017 30.3818C43.3633 27.5518 36.4779 22.9208 32.8743 21.5058C32.3273 21.2839 30.9438 20.7983 30.2037 20.7661C29.4959 20.7661 28.8202 20.9269 28.1767 21.2485C27.3723 21.6987 26.7288 22.4062 26.3749 23.2424C26.1497 23.8213 25.7958 25.5579 25.7958 25.59C25.4418 27.4875 25.2488 30.5748 25.2488 33.9837C25.2488 37.235 25.4418 40.1905 25.7314 42.12C25.7394 42.128 25.767 42.266 25.81 42.4804C25.9408 43.1322 26.2131 44.49 26.5036 45.0465C27.2115 46.3972 28.595 47.2334 30.075 47.2334H30.2037C31.169 47.2012 33.196 46.3651 33.196 46.3329C36.6066 44.9179 43.3312 40.5121 46.0339 37.5855L46.2269 37.3926Z" fill="white"/>
</svg>
